# 3ds Max Wavefront OBJ Exporter v0.97b - (c)2007 guruware
# File Created: 28.09.2015 15:37:40

#
# object Cylinder01
#

v  0.0000 0.0000 -0.0000
v  8.3083 0.0000 -18.1926
v  16.8251 0.0000 -10.8128
v  20.0000 0.0000 -0.0000
v  -13.0972 0.0000 -15.1150
v  -2.8463 0.0000 -19.7964
v  -19.1899 0.0000 5.6347
v  -19.1899 0.0000 -5.6346
v  -2.8463 0.0000 19.7964
v  -13.0972 0.0000 15.1150
v  16.8251 0.0000 10.8128
v  8.3083 0.0000 18.1926
v  16.8251 50.0000 -10.8128
v  20.0000 50.0000 -0.0000
v  8.3083 50.0000 -18.1926
v  -2.8463 50.0000 -19.7964
v  -13.0972 50.0000 -15.1150
v  -19.1899 50.0000 -5.6346
v  -19.1899 50.0000 5.6347
v  -13.0972 50.0000 15.1150
v  -2.8463 50.0000 19.7964
v  8.3083 50.0000 18.1926
v  16.8251 50.0000 10.8128
v  0.0000 50.0000 -0.0000
# 24 vertices

vn 0.0000 -1.0000 -0.0000
vn 1.0000 0.0000 -0.0000
vn 0.8413 0.0000 -0.5406
vn 0.4154 0.0000 -0.9096
vn -0.1423 0.0000 -0.9898
vn -0.6549 0.0000 -0.7557
vn -0.9595 0.0000 -0.2817
vn -0.9595 0.0000 0.2817
vn -0.6549 0.0000 0.7557
vn -0.1423 0.0000 0.9898
vn 0.4154 0.0000 0.9096
vn 0.8413 0.0000 0.5406
vn 0.0000 1.0000 -0.0000
# 13 vertex normals

vt 0.5000 0.0000 0.0000
vt 0.9318 0.0000 1.0000
vt 0.8409 0.0000 1.0000
vt 0.7500 0.0000 1.0000
vt 0.1136 0.0000 1.0000
vt 0.0227 0.0000 1.0000
vt -0.0682 0.0000 1.0000
vt 0.2955 0.0000 1.0000
vt 0.2045 0.0000 1.0000
vt 0.4773 0.0000 1.0000
vt 0.3864 0.0000 1.0000
vt 0.6591 0.0000 1.0000
vt 0.5682 0.0000 1.0000
vt 0.8409 1.0000 1.0000
vt 0.7500 1.0000 1.0000
vt 0.9318 1.0000 1.0000
vt 0.0227 1.0000 1.0000
vt -0.0682 1.0000 1.0000
vt 0.1136 1.0000 1.0000
vt 0.2045 1.0000 1.0000
vt 0.2955 1.0000 1.0000
vt 0.3864 1.0000 1.0000
vt 0.4773 1.0000 1.0000
vt 0.5682 1.0000 1.0000
vt 0.6591 1.0000 1.0000
vt 0.5000 1.0000 0.0000
vt 0.0213 1.0000 0.6825
# 27 texture coords

g Cylinder01
s 1
f 1/1/1 2/2/1 3/3/1 4/4/1 
f 1/1/1 5/5/1 6/6/1 2/7/1 
f 1/1/1 7/8/1 8/9/1 5/5/1 
f 1/1/1 9/10/1 10/11/1 7/8/1 
f 1/1/1 11/12/1 12/13/1 9/10/1 
f 1/1/1 4/4/1 11/12/1 
s 8
f 4/4/2 3/3/3 13/14/3 14/15/2 
f 3/3/3 2/2/4 15/16/4 13/14/3 
f 2/7/4 6/6/5 16/17/5 15/18/4 
f 6/6/5 5/5/6 17/19/6 16/17/5 
f 5/5/6 8/9/7 18/20/7 17/19/6 
f 8/9/7 7/8/8 19/21/8 18/20/7 
f 7/8/8 10/11/9 20/22/9 19/21/8 
f 10/11/9 9/10/10 21/23/10 20/22/9 
f 9/10/10 12/13/11 22/24/11 21/23/10 
f 12/13/11 11/12/12 23/25/12 22/24/11 
f 11/12/12 4/4/2 14/15/2 23/25/12 
s 1
f 24/26/13 23/25/13 14/15/13 13/14/13 
f 24/26/13 13/27/13 15/18/13 16/17/13 
f 24/26/13 16/17/13 17/19/13 18/20/13 
f 24/26/13 18/20/13 19/21/13 20/22/13 
f 24/26/13 20/22/13 21/23/13 22/24/13 
f 24/26/13 22/24/13 23/25/13 
# 21 polygons - 2 triangles

