# 3ds Max Wavefront OBJ Exporter v0.97b - (c)2007 guruware
# File Created: 28.09.2015 16:04:34

#
# object Cone01
#

v  0.0000 0.0000 -0.0000
v  24.2705 0.0000 -17.6336
v  28.5317 0.0000 -9.2705
v  30.0000 0.0000 -0.0000
v  9.2705 0.0000 -28.5317
v  17.6336 0.0000 -24.2705
v  -9.2705 0.0000 -28.5317
v  -0.0000 0.0000 -30.0000
v  -24.2705 0.0000 -17.6336
v  -17.6336 0.0000 -24.2705
v  -30.0000 0.0000 0.0000
v  -28.5317 0.0000 -9.2705
v  -24.2705 0.0000 17.6336
v  -28.5317 0.0000 9.2705
v  -9.2705 0.0000 28.5317
v  -17.6335 0.0000 24.2705
v  9.2705 0.0000 28.5317
v  0.0000 0.0000 30.0000
v  24.2705 0.0000 17.6335
v  17.6336 0.0000 24.2705
v  28.5317 0.0000 9.2705
v  0.0000 50.0000 -0.0000
# 22 vertices

vn 0.0000 -1.0000 -0.0000
vn 0.8575 0.5145 -0.0000
vn 0.8155 0.5145 -0.2650
vn 0.8497 0.5098 -0.1346
vn 0.8497 0.5098 0.1346
vn 0.6937 0.5145 -0.5040
vn 0.7665 0.5098 -0.3906
vn 0.5040 0.5145 -0.6937
vn 0.6083 0.5098 -0.6083
vn 0.2650 0.5145 -0.8155
vn 0.3906 0.5098 -0.7665
vn -0.0000 0.5145 -0.8575
vn 0.1346 0.5098 -0.8497
vn -0.2650 0.5145 -0.8155
vn -0.1346 0.5098 -0.8497
vn -0.5040 0.5145 -0.6937
vn -0.3906 0.5098 -0.7665
vn -0.6937 0.5145 -0.5040
vn -0.6083 0.5098 -0.6083
vn -0.8155 0.5145 -0.2650
vn -0.7665 0.5098 -0.3906
vn -0.8575 0.5145 0.0000
vn -0.8497 0.5098 -0.1346
vn -0.8155 0.5145 0.2650
vn -0.8497 0.5098 0.1346
vn -0.6937 0.5145 0.5040
vn -0.7665 0.5098 0.3906
vn -0.5040 0.5145 0.6937
vn -0.6083 0.5098 0.6083
vn -0.2650 0.5145 0.8155
vn -0.3906 0.5098 0.7665
vn 0.0000 0.5145 0.8575
vn -0.1346 0.5098 0.8497
vn 0.2650 0.5145 0.8155
vn 0.1346 0.5098 0.8497
vn 0.5040 0.5145 0.6937
vn 0.3906 0.5098 0.7665
vn 0.6937 0.5145 0.5040
vn 0.6083 0.5098 0.6083
vn 0.8155 0.5145 0.2650
vn 0.7665 0.5098 0.3906
vn 1.0000 0.0000 -0.0000
# 42 vertex normals

vt 0.5000 0.0000 0.0000
vt 0.8500 0.0000 1.0000
vt 0.8000 0.0000 1.0000
vt 0.7500 0.0000 1.0000
vt 0.9500 0.0000 1.0000
vt 0.9000 0.0000 1.0000
vt 0.0500 0.0000 1.0000
vt 0.0000 0.0000 1.0000
vt -0.0500 0.0000 1.0000
vt 0.1500 0.0000 1.0000
vt 0.1000 0.0000 1.0000
vt 0.2500 0.0000 1.0000
vt 0.2000 0.0000 1.0000
vt 0.3500 0.0000 1.0000
vt 0.3000 0.0000 1.0000
vt 0.4500 0.0000 1.0000
vt 0.4000 0.0000 1.0000
vt 0.5500 0.0000 1.0000
vt 0.5000 0.0000 1.0000
vt 0.6500 0.0000 1.0000
vt 0.6000 0.0000 1.0000
vt 0.7000 0.0000 1.0000
vt 0.5000 1.0000 0.0000
# 23 texture coords

g Cone01
s 1
f 1/1/1 2/2/1 3/3/1 4/4/1 
f 1/1/1 5/5/1 6/6/1 2/2/1 
f 1/1/1 7/7/1 8/8/1 5/9/1 
f 1/1/1 9/10/1 10/11/1 7/7/1 
f 1/1/1 11/12/1 12/13/1 9/10/1 
f 1/1/1 13/14/1 14/15/1 11/12/1 
f 1/1/1 15/16/1 16/17/1 13/14/1 
f 1/1/1 17/18/1 18/19/1 15/16/1 
f 1/1/1 19/20/1 20/21/1 17/18/1 
f 1/1/1 4/4/1 21/22/1 19/20/1 
s 8
f 4/4/2 3/3/3 22/23/4 22/23/5 
f 3/3/3 2/2/6 22/23/7 22/23/4 
f 2/2/6 6/6/8 22/23/9 22/23/7 
f 6/6/8 5/5/10 22/23/11 22/23/9 
f 5/9/10 8/8/12 22/23/13 22/23/11 
f 8/8/12 7/7/14 22/23/15 22/23/13 
f 7/7/14 10/11/16 22/23/17 22/23/15 
f 10/11/16 9/10/18 22/23/19 22/23/17 
f 9/10/18 12/13/20 22/23/21 22/23/19 
f 12/13/20 11/12/22 22/23/23 22/23/21 
f 11/12/22 14/15/24 22/23/25 22/23/23 
f 14/15/24 13/14/26 22/23/27 22/23/25 
f 13/14/26 16/17/28 22/23/29 22/23/27 
f 16/17/28 15/16/30 22/23/31 22/23/29 
f 15/16/30 18/19/32 22/23/33 22/23/31 
f 18/19/32 17/18/34 22/23/35 22/23/33 
f 17/18/34 20/21/36 22/23/37 22/23/35 
f 20/21/36 19/20/38 22/23/39 22/23/37 
f 19/20/38 21/22/40 22/23/41 22/23/39 
f 21/22/40 4/4/2 22/23/5 22/23/41 
s 1
f 22/23/42 22/23/42 22/23/42 22/23/42 
f 22/23/42 22/23/42 22/23/42 22/23/42 
f 22/23/42 22/23/42 22/23/42 22/23/42 
f 22/23/42 22/23/42 22/23/42 22/23/42 
f 22/23/42 22/23/42 22/23/42 22/23/42 
f 22/23/42 22/23/42 22/23/42 22/23/42 
f 22/23/42 22/23/42 22/23/42 22/23/42 
f 22/23/42 22/23/42 22/23/42 22/23/42 
f 22/23/42 22/23/42 22/23/42 22/23/42 
f 22/23/42 22/23/42 22/23/42 22/23/42 
# 40 polygons

