# 3ds Max Wavefront OBJ Exporter v0.97b - (c)2007 guruware
# File Created: 28.09.2015 16:06:27

#
# object Tube01
#

v  -0.0000 0.0000 -30.0000
v  -0.0000 40.0000 -30.0000
v  19.2836 40.0000 -22.9813
v  19.2836 0.0000 -22.9813
v  -0.0000 40.0000 -10.0000
v  6.4279 40.0000 -7.6604
v  -0.0000 0.0000 -10.0000
v  6.4279 0.0000 -7.6604
v  29.5442 40.0000 -5.2094
v  29.5442 0.0000 -5.2094
v  9.8481 40.0000 -1.7365
v  9.8481 0.0000 -1.7365
v  25.9808 40.0000 15.0000
v  25.9808 0.0000 15.0000
v  8.6603 40.0000 5.0000
v  8.6603 0.0000 5.0000
v  10.2606 40.0000 28.1908
v  10.2606 0.0000 28.1908
v  3.4202 40.0000 9.3969
v  3.4202 0.0000 9.3969
v  -10.2606 40.0000 28.1908
v  -10.2606 0.0000 28.1908
v  -3.4202 40.0000 9.3969
v  -3.4202 0.0000 9.3969
v  -25.9808 40.0000 15.0000
v  -25.9808 0.0000 15.0000
v  -8.6603 40.0000 5.0000
v  -8.6603 0.0000 5.0000
v  -29.5442 40.0000 -5.2095
v  -29.5442 0.0000 -5.2095
v  -9.8481 40.0000 -1.7365
v  -9.8481 0.0000 -1.7365
v  -19.2836 40.0000 -22.9813
v  -19.2836 0.0000 -22.9813
v  -6.4279 40.0000 -7.6604
v  -6.4279 0.0000 -7.6604
# 36 vertices

vn 0.0000 0.0000 -1.0000
vn 0.6428 0.0000 -0.7660
vn 0.0000 1.0000 -0.0000
vn -0.0000 0.0000 1.0000
vn -0.6428 0.0000 0.7660
vn 0.0000 -1.0000 -0.0000
vn 0.9848 0.0000 -0.1736
vn -0.9848 0.0000 0.1736
vn 0.8660 0.0000 0.5000
vn -0.8660 0.0000 -0.5000
vn 0.3420 0.0000 0.9397
vn -0.3420 0.0000 -0.9397
vn -0.3420 0.0000 0.9397
vn 0.3420 0.0000 -0.9397
vn -0.8660 0.0000 0.5000
vn 0.8660 0.0000 -0.5000
vn -0.9848 0.0000 -0.1736
vn 0.9848 0.0000 0.1736
vn -0.6428 0.0000 -0.7660
vn 0.6428 0.0000 0.7660
# 20 vertex normals

vt 0.0000 0.0000 0.0000
vt 0.2500 0.0000 0.0000
vt 0.2500 0.1111 0.0000
vt 0.0000 0.1111 0.0000
vt 0.5000 0.0000 0.0000
vt 0.5000 0.1111 0.0000
vt 0.7500 0.0000 0.0000
vt 0.7500 0.1111 0.0000
vt 1.0000 0.0000 0.0000
vt 1.0000 0.1111 0.0000
vt 0.2500 0.2222 0.0000
vt 0.0000 0.2222 0.0000
vt 0.5000 0.2222 0.0000
vt 0.7500 0.2222 0.0000
vt 1.0000 0.2222 0.0000
vt 0.2500 0.3333 0.0000
vt 0.0000 0.3333 0.0000
vt 0.5000 0.3333 0.0000
vt 0.7500 0.3333 0.0000
vt 1.0000 0.3333 0.0000
vt 0.2500 0.4444 0.0000
vt 0.0000 0.4444 0.0000
vt 0.5000 0.4444 0.0000
vt 0.7500 0.4444 0.0000
vt 1.0000 0.4444 0.0000
vt 0.2500 0.5556 0.0000
vt 0.0000 0.5556 0.0000
vt 0.5000 0.5556 0.0000
vt 0.7500 0.5556 0.0000
vt 1.0000 0.5556 0.0000
vt 0.2500 0.6667 0.0000
vt 0.0000 0.6667 0.0000
vt 0.5000 0.6667 0.0000
vt 0.7500 0.6667 0.0000
vt 1.0000 0.6667 0.0000
vt 0.2500 0.7778 0.0000
vt 0.0000 0.7778 0.0000
vt 0.5000 0.7778 0.0000
vt 0.7500 0.7778 0.0000
vt 1.0000 0.7778 0.0000
vt 0.2500 0.8889 0.0000
vt 0.0000 0.8889 0.0000
vt 0.5000 0.8889 0.0000
vt 0.7500 0.8889 0.0000
vt 1.0000 0.8889 0.0000
vt 0.2500 1.0000 0.0000
vt 0.0000 1.0000 0.0000
vt 0.5000 1.0000 0.0000
vt 0.7500 1.0000 0.0000
vt 1.0000 1.0000 0.0000
# 50 texture coords

g Tube01
s 2
f 1/1/1 2/2/1 3/3/2 4/4/2 
s 4
f 2/2/3 5/5/3 6/6/3 3/3/3 
s 2
f 5/5/4 7/7/4 8/8/5 6/6/5 
s 4
f 7/7/6 1/9/6 4/10/6 8/8/6 
s 2
f 4/4/2 3/3/2 9/11/7 10/12/7 
s 4
f 3/3/3 6/6/3 11/13/3 9/11/3 
s 2
f 6/6/5 8/8/5 12/14/8 11/13/8 
s 4
f 8/8/6 4/10/6 10/15/6 12/14/6 
s 2
f 10/12/7 9/11/7 13/16/9 14/17/9 
s 4
f 9/11/3 11/13/3 15/18/3 13/16/3 
s 2
f 11/13/8 12/14/8 16/19/10 15/18/10 
s 4
f 12/14/6 10/15/6 14/20/6 16/19/6 
s 2
f 14/17/9 13/16/9 17/21/11 18/22/11 
s 4
f 13/16/3 15/18/3 19/23/3 17/21/3 
s 2
f 15/18/10 16/19/10 20/24/12 19/23/12 
s 4
f 16/19/6 14/20/6 18/25/6 20/24/6 
s 2
f 18/22/11 17/21/11 21/26/13 22/27/13 
s 4
f 17/21/3 19/23/3 23/28/3 21/26/3 
s 2
f 19/23/12 20/24/12 24/29/14 23/28/14 
s 4
f 20/24/6 18/25/6 22/30/6 24/29/6 
s 2
f 22/27/13 21/26/13 25/31/15 26/32/15 
s 4
f 21/26/3 23/28/3 27/33/3 25/31/3 
s 2
f 23/28/14 24/29/14 28/34/16 27/33/16 
s 4
f 24/29/6 22/30/6 26/35/6 28/34/6 
s 2
f 26/32/15 25/31/15 29/36/17 30/37/17 
s 4
f 25/31/3 27/33/3 31/38/3 29/36/3 
s 2
f 27/33/16 28/34/16 32/39/18 31/38/18 
s 4
f 28/34/6 26/35/6 30/40/6 32/39/6 
s 2
f 30/37/17 29/36/17 33/41/19 34/42/19 
s 4
f 29/36/3 31/38/3 35/43/3 33/41/3 
s 2
f 31/38/18 32/39/18 36/44/20 35/43/20 
s 4
f 32/39/6 30/40/6 34/45/6 36/44/6 
s 2
f 34/42/19 33/41/19 2/46/1 1/47/1 
s 4
f 33/41/3 35/43/3 5/48/3 2/46/3 
s 2
f 35/43/20 36/44/20 7/49/4 5/48/4 
s 4
f 36/44/6 34/45/6 1/50/6 7/49/6 
# 36 polygons

