# 3ds Max Wavefront OBJ Exporter v0.97b - (c)2007 guruware
# File Created: 28.09.2015 16:09:07

#
# object Hedra01
#

v  9.9470 39.9102 -0.0000
v  28.2208 26.9887 12.9215
v  28.2208 26.9887 -12.9215
v  28.2208 12.9215 -26.9887
v  28.2208 -12.9215 -26.9887
v  9.9470 0.0000 -39.9102
v  -9.9470 0.0000 -39.9102
v  -28.2208 -12.9215 -26.9887
v  -28.2208 12.9215 -26.9887
v  -28.2208 26.9887 -12.9215
v  -28.2208 26.9887 12.9215
v  -9.9470 39.9102 -0.0000
v  -28.2208 12.9215 26.9887
v  -28.2208 -12.9215 26.9887
v  -9.9470 0.0000 39.9102
v  9.9470 0.0000 39.9102
v  28.2208 -12.9215 26.9887
v  28.2208 12.9215 26.9887
v  28.2208 -26.9887 12.9215
v  9.9470 -39.9102 0.0000
v  28.2208 -26.9887 -12.9215
v  -28.2208 -26.9887 12.9215
v  -28.2208 -26.9887 -12.9215
v  -9.9470 -39.9102 -0.0000
# 24 vertices

vn 0.5774 0.8165 -0.0000
vn 0.5774 0.0000 -0.8165
vn -0.5774 0.0000 -0.8165
vn -0.5774 0.8165 -0.0000
vn -0.5774 0.0000 0.8165
vn 0.5774 0.0000 0.8165
vn 0.5774 -0.8165 -0.0000
vn -0.5774 -0.8165 -0.0000
vn 0.0000 0.7071 -0.7071
vn -0.0000 0.7071 -0.7071
vn -0.0000 0.7071 0.7071
vn 0.0000 0.7071 0.7071
vn 1.0000 0.0000 -0.0000
vn 0.0000 -0.7071 0.7071
vn -0.0000 -0.7071 0.7071
vn -0.0000 -0.7071 -0.7071
vn 0.0000 -0.7071 -0.7071
vn -1.0000 0.0000 -0.0000
# 18 vertex normals

vt 0.1762 0.0000 0.5000
vt 0.5000 -0.1619 0.3381
vt 0.5000 0.1619 0.3381
vt 0.1619 0.5000 0.3381
vt -0.1619 0.5000 0.3381
vt 0.0000 0.1762 0.5000
vt 0.0000 -0.1762 0.5000
vt -0.1619 -0.5000 0.3381
vt 0.1619 -0.5000 0.3381
vt -0.5000 0.1619 0.3381
vt -0.5000 -0.1619 0.3381
vt -0.1762 0.0000 0.5000
vt 0.1619 -0.5000 -0.3381
vt -0.1619 -0.5000 -0.3381
vt 0.0000 -0.1762 -0.5000
vt 0.0000 0.1762 -0.5000
vt -0.1619 0.5000 -0.3381
vt 0.1619 0.5000 -0.3381
vt 0.5000 -0.1619 -0.3381
vt 0.1762 -0.0000 -0.5000
vt 0.5000 0.1619 -0.3381
vt -0.5000 -0.1619 -0.3381
vt -0.5000 0.1619 -0.3381
vt -0.1762 0.0000 -0.5000
vt 0.5000 0.1762 0.0000
vt 0.3381 0.5000 0.1619
vt 0.3381 -0.5000 0.1619
vt 0.5000 -0.1762 0.0000
vt 0.3381 -0.5000 -0.1619
vt 0.3381 0.5000 -0.1619
vt -0.3381 0.1619 0.5000
vt -0.3381 -0.1619 0.5000
vt -0.1619 -0.3381 0.5000
vt 0.1619 -0.3381 0.5000
vt 0.3381 -0.1619 0.5000
vt 0.3381 0.1619 0.5000
vt 0.1619 0.3381 0.5000
vt -0.1619 0.3381 0.5000
vt 0.5000 -0.3381 -0.1619
vt 0.1762 -0.5000 0.0000
vt -0.1762 -0.5000 0.0000
vt -0.5000 -0.3381 -0.1619
vt -0.3381 -0.5000 -0.1619
vt -0.5000 -0.1762 0.0000
vt -0.5000 0.1762 -0.0000
vt -0.3381 0.5000 -0.1619
vt -0.3381 -0.5000 0.1619
vt -0.3381 0.5000 0.1619
vt 0.1619 -0.3381 -0.5000
vt -0.1619 -0.3381 -0.5000
vt -0.3381 -0.1619 -0.5000
vt -0.3381 0.1619 -0.5000
vt -0.1619 0.3381 -0.5000
vt 0.1619 0.3381 -0.5000
vt 0.3381 0.1619 -0.5000
vt 0.3381 -0.1619 -0.5000
# 56 texture coords

g Hedra01
s off
f 1/1/1 2/2/1 3/3/1 
f 4/4/2 5/5/2 6/6/2 
f 7/7/3 8/8/3 9/9/3 
f 10/10/4 11/11/4 12/12/4 
f 13/13/5 14/14/5 15/15/5 
f 16/16/6 17/17/6 18/18/6 
f 19/19/7 20/20/7 21/21/7 
f 22/22/8 23/23/8 24/24/8 
f 1/25/9 3/26/9 4/4/9 6/6/9 
f 1/25/10 6/6/10 7/7/10 9/9/10 
f 1/25/10 9/9/10 10/27/10 12/28/10 
f 12/28/11 11/29/11 13/13/11 15/15/11 
f 12/28/12 15/15/12 16/16/12 18/18/12 
f 12/28/12 18/18/12 2/30/12 1/25/12 
f 18/31/13 17/32/13 19/33/13 21/34/13 
f 18/31/13 21/34/13 5/35/13 4/36/13 
f 18/31/13 4/36/13 3/37/13 2/38/13 
f 17/39/14 16/40/14 15/41/14 14/42/14 
f 17/17/15 14/14/15 22/43/15 24/44/15 
f 17/17/14 24/44/14 20/45/14 19/46/14 
f 24/44/16 23/47/16 8/8/16 7/7/16 
f 24/44/17 7/7/17 6/6/17 5/5/17 
f 24/44/17 5/5/17 21/48/17 20/45/17 
f 23/49/18 22/50/18 14/51/18 13/52/18 
f 23/49/18 13/52/18 11/53/18 10/54/18 
f 23/49/18 10/54/18 9/55/18 8/56/18 
# 18 polygons - 8 triangles

