# 3ds Max Wavefront OBJ Exporter v0.97b - (c)2007 guruware
# File Created: 28.09.2015 16:34:00

#
# object Gengon01
#

v  0.0000 80.0000 -0.0000
v  48.2366 80.0000 2.4271
v  48.2366 80.0000 -2.4271
v  17.2142 80.0000 -45.1258
v  12.5977 80.0000 -46.6258
v  -37.5977 80.0000 -30.3163
v  -40.4509 80.0000 -26.3893
v  -40.4508 80.0000 26.3893
v  -37.5977 80.0000 30.3163
v  12.5977 80.0000 46.6258
v  17.2142 80.0000 45.1258
v  48.2366 0.0000 2.4271
v  48.2366 0.0000 -2.4271
v  17.2142 0.0000 -45.1258
v  12.5977 0.0000 -46.6258
v  -37.5977 0.0000 -30.3163
v  -40.4509 0.0000 -26.3893
v  -40.4508 0.0000 26.3893
v  -37.5977 0.0000 30.3163
v  12.5977 0.0000 46.6258
v  17.2142 0.0000 45.1258
v  0.0000 0.0000 -0.0000
# 22 vertices

vn 0.0000 1.0000 -0.0000
vn 1.0000 0.0000 -0.0000
vn 0.8090 0.0000 -0.5878
vn 0.3090 0.0000 -0.9511
vn -0.3090 0.0000 -0.9511
vn -0.8090 0.0000 -0.5878
vn -1.0000 0.0000 0.0000
vn -0.8090 0.0000 0.5878
vn -0.3090 0.0000 0.9511
vn 0.3090 0.0000 0.9511
vn 0.8090 0.0000 0.5878
vn 0.0000 -1.0000 -0.0000
# 12 vertex normals

vt 0.5000 0.5000 0.0000
vt 0.9824 0.4757 0.0000
vt 0.9824 0.5243 0.0000
vt 0.6721 0.9513 0.0000
vt 0.6260 0.9663 0.0000
vt 0.1240 0.8032 0.0000
vt 0.0955 0.7639 0.0000
vt 0.0955 0.2361 0.0000
vt 0.1240 0.1968 0.0000
vt 0.6260 0.0337 0.0000
vt 0.6721 0.0487 0.0000
vt 0.0000 1.0000 0.0000
vt 0.0000 0.0000 0.0000
vt 0.0764 0.0000 0.0000
vt 0.0764 1.0000 0.0000
vt 0.2000 0.0000 0.0000
vt 0.2000 1.0000 0.0000
vt 0.2764 0.0000 0.0000
vt 0.2764 1.0000 0.0000
vt 0.4000 0.0000 0.0000
vt 0.4000 1.0000 0.0000
vt 0.4764 0.0000 0.0000
vt 0.4764 1.0000 0.0000
vt 0.6000 0.0000 0.0000
vt 0.6000 1.0000 0.0000
vt 0.6764 0.0000 0.0000
vt 0.6764 1.0000 0.0000
vt 0.8000 0.0000 0.0000
vt 0.8000 1.0000 0.0000
vt 0.8764 0.0000 0.0000
vt 0.8764 1.0000 0.0000
vt 1.0000 0.0000 0.0000
vt 1.0000 1.0000 0.0000
# 33 texture coords

g Gengon01
s off
f 1/1/1 2/2/1 3/3/1 
f 1/1/1 3/3/1 4/4/1 
f 1/1/1 4/4/1 5/5/1 
f 1/1/1 5/5/1 6/6/1 
f 1/1/1 6/6/1 7/7/1 
f 1/1/1 7/7/1 8/8/1 
f 1/1/1 8/8/1 9/9/1 
f 1/1/1 9/9/1 10/10/1 
f 1/1/1 10/10/1 11/11/1 
f 1/1/1 11/11/1 2/2/1 
f 2/12/2 12/13/2 13/14/2 3/15/2 
f 3/15/3 13/14/3 14/16/3 4/17/3 
f 4/17/4 14/16/4 15/18/4 5/19/4 
f 5/19/5 15/18/5 16/20/5 6/21/5 
f 6/21/6 16/20/6 17/22/6 7/23/6 
f 7/23/7 17/22/7 18/24/7 8/25/7 
f 8/25/8 18/24/8 19/26/8 9/27/8 
f 9/27/9 19/26/9 20/28/9 10/29/9 
f 10/29/10 20/28/10 21/30/10 11/31/10 
f 11/31/11 21/30/11 12/32/11 2/33/11 
f 12/2/12 22/1/12 13/3/12 
f 13/3/12 22/1/12 14/4/12 
f 14/4/12 22/1/12 15/5/12 
f 15/5/12 22/1/12 16/6/12 
f 16/6/12 22/1/12 17/7/12 
f 17/7/12 22/1/12 18/8/12 
f 18/8/12 22/1/12 19/9/12 
f 19/9/12 22/1/12 20/10/12 
f 20/10/12 22/1/12 21/11/12 
f 21/11/12 22/1/12 12/2/12 
# 10 polygons - 20 triangles

